<?xml version="1.0" standalone="no"?><!DOCTYPE svg PUBLIC "-//W3C//DTD SVG 1.1//EN" "http://www.w3.org/Graphics/SVG/1.1/DTD/svg11.dtd"><svg t="1612431432497" class="icon" viewBox="0 0 1024 1024" version="1.1" xmlns="http://www.w3.org/2000/svg" p-id="9309" xmlns:xlink="http://www.w3.org/1999/xlink" width="200" height="200"><defs><style type="text/css"></style></defs><path d="M704 496h-144V288a48 48 0 1 0-96 0v256a48 48 0 0 0 48 48h192a48 48 0 1 0 0-96zM310.592 73.2A191.008 191.008 0 0 0 192 32C85.968 32 0 117.968 0 224c0 44.8 15.472 85.92 41.2 118.592A513.712 513.712 0 0 1 310.592 73.2zM836.016 32c-43.872 0-84.128 15.152-116.112 40.336a502.928 502.928 0 0 1 263.744 263.76c25.184-32 40.336-72.256 40.336-116.112C1024 116.16 939.84 32 836.016 32zM512 80C255.744 80 48 287.744 48 544c0 123.056 48.24 234.624 126.432 317.68l-64.368 64.368a48 48 0 1 0 67.872 67.888l69.232-69.232A461.6 461.6 0 0 0 512 1008c98.72 0 190.048-31.056 265.264-83.632l69.696 69.712a47.456 47.456 0 1 0 67.136-67.12l-64.896-64.896C927.632 779.008 976 667.264 976 544 976 287.744 768.256 80 512 80z m0 832C308.752 912 144 747.248 144 544s164.752-368 368-368c203.232 0 368 164.752 368 368S715.248 912 512 912z" fill="" p-id="9310"></path></svg>